<svg width="32" height="32" viewBox="0 0 32 32" fill="none" xmlns="http://www.w3.org/2000/svg">
<path d="M16.7439 3.976C16.2588 3.81181 15.7331 3.81181 15.2479 3.976L6.21327 7.036C5.919 7.13159 5.6591 7.31113 5.46555 7.55253C5.272 7.79393 5.15326 8.08665 5.12394 8.39467C4.6746 14.0293 5.4546 18.196 7.3066 21.344C9.0986 24.3907 11.9653 26.6053 15.9959 28.256C20.0306 26.6053 22.8999 24.3907 24.6919 21.344C26.5453 18.1973 27.3253 14.0293 26.8759 8.39467C26.8466 8.08665 26.7279 7.79393 26.5343 7.55253C26.3408 7.31113 26.0809 7.13159 25.7866 7.036L16.7439 3.976ZM14.6066 2.08267C15.5076 1.77722 16.484 1.77675 17.3853 2.08133L26.4279 5.14133C27.0922 5.36254 27.6771 5.7733 28.1107 6.32298C28.5443 6.87265 28.8075 7.53719 28.8679 8.23467C29.3386 14.1147 28.5479 18.736 26.4159 22.3587C24.2773 25.992 20.8679 28.4893 16.3626 30.264C16.127 30.3569 15.8649 30.3569 15.6293 30.264C11.1279 28.4893 7.71994 25.992 5.5826 22.3587C3.45194 18.736 2.66127 14.1133 3.1306 8.23467C3.19103 7.53719 3.45426 6.87265 3.88784 6.32298C4.32142 5.7733 4.90638 5.36254 5.5706 5.14133L14.6066 2.08267Z" fill="#5F61C2"/>
<path opacity="0.5" d="M16 26.6667C22.7093 23.9467 25.8747 19.176 25.2573 10.1773C25.188 9.15466 24.4893 8.28933 23.52 7.95199L17.0933 5.71466C16.7418 5.59227 16.3722 5.52963 16 5.52933V26.6667Z" fill="#5F61C2"/>
</svg>
