<svg width="31" height="26" viewBox="0 0 31 26" fill="none" xmlns="http://www.w3.org/2000/svg">
<path d="M4.64336 10.4423C4.93657 10.1491 5.08318 10.0025 5.25212 9.94785C5.40071 9.89982 5.56072 9.90021 5.70907 9.94898C5.87774 10.0044 6.02363 10.1517 6.3154 10.4464L10.7952 14.9703L5.63517 20.1304L1.11123 15.6506C0.816576 15.3588 0.66925 15.2129 0.613806 15.0442C0.565039 14.8959 0.564646 14.7359 0.612685 14.5873C0.667301 14.4184 0.81391 14.2717 1.10713 13.9785L4.64336 10.4423Z" fill="url(#paint0_linear_95_66)"/>
<path d="M24.4179 1.34762C24.7071 1.05844 24.8517 0.913853 25.0186 0.859019C25.1655 0.810779 25.3239 0.809952 25.4713 0.856653C25.6388 0.909739 25.7849 1.05281 26.0771 1.33895L29.739 4.9251C30.0368 5.21669 30.1857 5.36249 30.242 5.53156C30.2915 5.68025 30.2923 5.84086 30.2444 5.99006C30.1898 6.15971 30.0425 6.30705 29.7478 6.60174L11.7146 24.6349C11.4199 24.9296 11.2726 25.077 11.1029 25.1315C10.9537 25.1795 10.7931 25.1786 10.6444 25.1291C10.4753 25.0728 10.3296 24.9239 10.038 24.6262L5.63517 20.1304L24.4179 1.34762Z" fill="url(#paint1_linear_95_66)"/>
<path d="M5.63517 20.1304C5.52072 20.0159 5.4635 19.9587 5.42477 19.9021C5.25305 19.6511 5.25312 19.3204 5.42496 19.0694C5.4637 19.0128 5.52095 18.9557 5.63545 18.8413L9.51419 14.9668C9.6242 14.857 9.6792 14.802 9.73327 14.7645C9.98723 14.5882 10.3242 14.5891 10.5772 14.7668C10.6311 14.8046 10.6858 14.8599 10.7952 14.9703V14.9703L5.63517 20.1304V20.1304Z" fill="white"/>
<defs>
<linearGradient id="paint0_linear_95_66" x1="15.3536" y1="7.17026" x2="15.3536" y2="24.3526" gradientUnits="userSpaceOnUse">
<stop stop-color="#6775A9"/>
<stop offset="1" stop-color="#3832B6"/>
</linearGradient>
<linearGradient id="paint1_linear_95_66" x1="15.3536" y1="7.17026" x2="15.3536" y2="24.3526" gradientUnits="userSpaceOnUse">
<stop stop-color="#6775A9"/>
<stop offset="1" stop-color="#3832B6"/>
</linearGradient>
</defs>
</svg>
