<svg width="22" height="23" viewBox="0 0 22 23" fill="none" xmlns="http://www.w3.org/2000/svg">
<path d="M0.760237 23V22.6667L1.59357 22.3667C2.03801 22.1889 2.38246 21.9778 2.6269 21.7333C2.87135 21.4667 3.07135 21.1 3.2269 20.6333L10.0936 0.933331H12.9269L19.6936 20.7667C19.8714 21.2556 20.0714 21.6333 20.2936 21.9C20.5158 22.1444 20.8602 22.3556 21.3269 22.5333L21.7269 22.6667V23H13.2602V22.6667L13.7602 22.5C14.2269 22.3222 14.5047 22.0778 14.5936 21.7667C14.7047 21.4333 14.6936 21.0444 14.5602 20.6L12.9936 15.8H5.59357L3.99357 20.5C3.83802 20.9889 3.78246 21.3778 3.8269 21.6667C3.89357 21.9556 4.16024 22.1889 4.6269 22.3667L5.36024 22.6667V23H0.760237ZM5.8269 15.1333H12.7936L9.4269 4.76666L5.8269 15.1333Z" fill="#575757"/>
</svg>
