<svg width="28" height="28" viewBox="0 0 28 28" fill="none" xmlns="http://www.w3.org/2000/svg">
<path d="M7.07478 21.98C10.1662 25.0714 14.1843 25.9976 16.1595 26.1876C16.74 26.2543 17.0638 25.8971 17.1081 25.529C17.1529 25.1386 16.9072 24.7143 16.3495 24.6362C14.5638 24.3905 10.8695 23.5871 8.19097 20.8752C3.81573 16.489 2.99002 9.85953 6.56145 6.2881C9.46335 3.39762 14.2957 3.76571 17.8562 5.68524L19.0167 4.5581C14.6862 1.95762 8.8605 1.74572 5.44526 5.17191C1.38287 9.24572 1.91859 16.8238 7.07478 21.98ZM23.4367 6.16524L24.3291 5.27238C24.7529 4.84857 24.7757 4.22333 24.3405 3.82143L24.05 3.55381C23.671 3.19667 23.0791 3.20762 22.6662 3.5981L21.7848 4.50238L23.4367 6.16524ZM12.5995 16.9795L22.6214 6.96857L20.9586 5.31714L10.9476 15.3171L10.0214 17.4486C9.93192 17.6829 10.1662 17.9176 10.4119 17.839L12.5995 16.9795ZM11.1376 18.6429C14.7867 22.2924 20.6572 23.7324 23.9386 20.4619C26.6172 17.7724 26.271 12.9952 23.4029 8.88857L22.2648 10.0267C24.541 13.3971 24.9876 17.181 22.8224 19.3457C20.1891 21.98 15.8357 20.73 12.8448 17.9062L11.1376 18.6429Z" fill="#5F61C2"/>
</svg>
