<svg width="31" height="26" viewBox="0 0 31 26" fill="none" xmlns="http://www.w3.org/2000/svg">
<g clip-path="url(#clip0_1_3)">
<path d="M24.4179 1.34762C24.7071 1.05844 24.8517 0.91385 25.0186 0.859016C25.1655 0.810776 25.3239 0.809949 25.4713 0.85665C25.6388 0.909736 25.7849 1.05281 26.0771 1.33895L29.739 4.9251C30.0368 5.21669 30.1857 5.36249 30.242 5.53156C30.2915 5.68025 30.2923 5.84086 30.2444 5.99006C30.1898 6.15971 30.0425 6.30705 29.7478 6.60174L11.7146 24.6349C11.4199 24.9296 11.2726 25.077 11.1029 25.1315C10.9537 25.1795 10.7931 25.1786 10.6444 25.1291C10.4753 25.0728 10.3296 24.9239 10.038 24.6262L5.63517 20.1304L24.4179 1.34762Z" fill="url(#paint0_linear_1_3)"/>
<path d="M5.25179 9.94759C5.40026 9.89959 5.56056 9.89991 5.70882 9.94856C5.87749 10.004 6.02349 10.1519 6.31526 10.4466L10.7557 14.931C10.6716 14.8464 10.624 14.7999 10.577 14.7669C10.324 14.5893 9.98716 14.5887 9.73323 14.765C9.67924 14.8025 9.62433 14.8575 9.51448 14.9671L5.63557 18.8411C5.52107 18.9555 5.46338 19.0131 5.42464 19.0697C5.25309 19.3205 5.25322 19.6508 5.42464 19.9017C5.44401 19.93 5.4683 19.9587 5.50179 19.9945L5.63557 20.1302L1.11116 15.6507C0.816593 15.359 0.669572 15.2129 0.61409 15.0443C0.565323 14.896 0.565074 14.7358 0.613113 14.5872C0.667769 14.4184 0.814211 14.2719 1.10725 13.9788L4.64339 10.4427C4.93647 10.1496 5.08294 10.0023 5.25179 9.94759Z" fill="url(#paint1_linear_1_3)"/>
</g>
<defs>
<linearGradient id="paint0_linear_1_3" x1="15.3536" y1="7.17026" x2="15.3536" y2="24.3526" gradientUnits="userSpaceOnUse">
<stop stop-color="#6775A9"/>
<stop offset="1" stop-color="#3832B6"/>
</linearGradient>
<linearGradient id="paint1_linear_1_3" x1="15.3536" y1="7.17026" x2="15.3536" y2="24.3526" gradientUnits="userSpaceOnUse">
<stop stop-color="#6775A9"/>
<stop offset="1" stop-color="#3832B6"/>
</linearGradient>
<clipPath id="clip0_1_3">
<rect width="31" height="26" fill="white"/>
</clipPath>
</defs>
</svg>
