<svg width="165" height="42" viewBox="0 0 165 42" fill="none" xmlns="http://www.w3.org/2000/svg">
<path d="M4.374 31C3.73741 31 3.24456 30.8255 2.89546 30.4764C2.54636 30.1067 2.37182 29.6036 2.37182 28.967V11.1938C2.37182 10.5367 2.5361 10.0438 2.86466 9.71527C3.21376 9.36617 3.7066 9.19162 4.34319 9.19162C4.97978 9.19162 5.46236 9.36617 5.79092 9.71527C6.14002 10.0438 6.31457 10.5367 6.31457 11.1938V27.6425H15.2474C15.8018 27.6425 16.2228 27.7862 16.5103 28.0737C16.8183 28.3612 16.9723 28.7719 16.9723 29.3058C16.9723 29.8398 16.8183 30.2607 16.5103 30.5688C16.2228 30.8563 15.8018 31 15.2474 31H4.374ZM26.5717 31.308C24.8673 31.308 23.3991 30.9897 22.1669 30.3531C20.9348 29.7166 19.9799 28.813 19.3023 27.6425C18.6452 26.472 18.3166 25.0859 18.3166 23.4841C18.3166 21.9234 18.6349 20.5579 19.2715 19.3873C19.9286 18.2168 20.8219 17.303 21.9513 16.6459C23.1013 15.9682 24.4053 15.6294 25.8633 15.6294C26.9311 15.6294 27.886 15.804 28.7279 16.1531C29.5904 16.5022 30.3194 17.0053 30.9149 17.6624C31.531 18.3195 31.993 19.1204 32.3011 20.065C32.6296 20.9891 32.7939 22.0364 32.7939 23.2069C32.7939 23.5765 32.6604 23.864 32.3935 24.0694C32.147 24.2542 31.7877 24.3466 31.3154 24.3466H21.4277V22.1288H30.0833L29.5904 22.5908C29.5904 21.6462 29.4467 20.8556 29.1592 20.219C28.8922 19.5824 28.4918 19.0999 27.9579 18.7713C27.4445 18.4222 26.7976 18.2476 26.0173 18.2476C25.1548 18.2476 24.4155 18.453 23.7995 18.8637C23.204 19.2539 22.7419 19.8186 22.4134 20.5579C22.1053 21.2766 21.9513 22.1391 21.9513 23.1453V23.3609C21.9513 25.0448 22.3415 26.3077 23.1218 27.1497C23.9227 27.9711 25.0932 28.3818 26.6333 28.3818C27.1673 28.3818 27.7628 28.3202 28.4199 28.1969C29.0976 28.0532 29.7342 27.817 30.3297 27.4885C30.7609 27.2421 31.1408 27.1394 31.4694 27.1805C31.7979 27.201 32.0546 27.3139 32.2395 27.5193C32.4448 27.7246 32.568 27.9813 32.6091 28.2894C32.6502 28.5768 32.5885 28.8746 32.4243 29.1826C32.2805 29.4907 32.0238 29.7576 31.6542 29.9835C30.9355 30.4353 30.1038 30.7741 29.1592 31C28.2351 31.2054 27.3726 31.308 26.5717 31.308ZM42.6828 31.308C41.348 31.308 40.2288 31.0821 39.3253 30.6304C38.4423 30.1786 37.7852 29.5215 37.3539 28.659C36.9227 27.776 36.7071 26.6876 36.7071 25.3939V18.8329H35.1053C34.6125 18.8329 34.2326 18.7097 33.9656 18.4633C33.6987 18.1963 33.5652 17.8369 33.5652 17.3852C33.5652 16.9129 33.6987 16.5535 33.9656 16.3071C34.2326 16.0606 34.6125 15.9374 35.1053 15.9374H36.7071V13.1344C36.7071 12.4978 36.8713 12.0152 37.1999 11.6866C37.549 11.3581 38.0316 11.1938 38.6476 11.1938C39.2637 11.1938 39.736 11.3581 40.0646 11.6866C40.3931 12.0152 40.5574 12.4978 40.5574 13.1344V15.9374H43.8225C44.3153 15.9374 44.6952 16.0606 44.9622 16.3071C45.2292 16.5535 45.3626 16.9129 45.3626 17.3852C45.3626 17.8369 45.2292 18.1963 44.9622 18.4633C44.6952 18.7097 44.3153 18.8329 43.8225 18.8329H40.5574V25.1783C40.5574 26.164 40.773 26.9032 41.2043 27.3961C41.6355 27.8889 42.3337 28.1353 43.2989 28.1353C43.648 28.1353 43.956 28.1045 44.2229 28.0429C44.4899 27.9813 44.7261 27.9403 44.9314 27.9197C45.1778 27.8992 45.3832 27.9813 45.5475 28.1661C45.7117 28.3304 45.7939 28.6795 45.7939 29.2134C45.7939 29.6241 45.722 29.9938 45.5783 30.3223C45.455 30.6304 45.2189 30.846 44.8698 30.9692C44.6028 31.0513 44.2537 31.1232 43.8225 31.1848C43.3913 31.267 43.0114 31.308 42.6828 31.308ZM53.1185 31.308C52.2354 31.308 51.3011 31.2156 50.3154 31.0308C49.3297 30.846 48.4467 30.5277 47.6664 30.0759C47.3378 29.8706 47.1016 29.6344 46.9579 29.3675C46.8347 29.08 46.7833 28.8027 46.8039 28.5358C46.8449 28.2483 46.9476 28.0019 47.1119 27.7965C47.2967 27.5912 47.5226 27.4577 47.7896 27.3961C48.0771 27.3345 48.3851 27.3858 48.7137 27.5501C49.5351 27.9403 50.3051 28.2175 51.0239 28.3818C51.7426 28.5255 52.4511 28.5974 53.1493 28.5974C54.1349 28.5974 54.8639 28.4331 55.3363 28.1045C55.8291 27.7554 56.0755 27.3037 56.0755 26.7492C56.0755 26.2769 55.9112 25.9175 55.5827 25.6711C55.2746 25.4042 54.8023 25.2091 54.1657 25.0859L51.0855 24.5006C49.8123 24.2542 48.8369 23.7921 48.1592 23.1145C47.5021 22.4163 47.1735 21.523 47.1735 20.4346C47.1735 19.449 47.4405 18.5967 47.9744 17.878C48.5288 17.1593 49.2886 16.6048 50.2538 16.2147C51.2189 15.8245 52.3278 15.6294 53.5805 15.6294C54.484 15.6294 55.326 15.7321 56.1063 15.9374C56.9072 16.1223 57.6773 16.42 58.4165 16.8307C58.7246 16.995 58.9299 17.2106 59.0326 17.4776C59.1558 17.7445 59.1866 18.0218 59.125 18.3092C59.0634 18.5762 58.9402 18.8226 58.7554 19.0485C58.5705 19.2539 58.3344 19.3873 58.0469 19.449C57.7799 19.49 57.4719 19.4284 57.1228 19.2641C56.4862 18.9356 55.8702 18.6994 55.2746 18.5557C54.6997 18.4119 54.1452 18.3401 53.6113 18.3401C52.6051 18.3401 51.8555 18.5146 51.3627 18.8637C50.8904 19.2128 50.6542 19.6748 50.6542 20.2498C50.6542 20.6811 50.798 21.0404 51.0855 21.3279C51.373 21.6154 51.8145 21.8105 52.41 21.9132L55.4903 22.4984C56.8251 22.7449 57.8313 23.1966 58.5089 23.8538C59.2071 24.5109 59.5562 25.3939 59.5562 26.5028C59.5562 28.0019 58.971 29.1826 57.8005 30.0451C56.63 30.8871 55.0693 31.308 53.1185 31.308Z" fill="url(#paint0_linear_56_234)"/>
<path d="M75.3129 31.308C74.4094 31.308 73.5059 31.2362 72.6023 31.0924C71.6988 30.9692 70.8465 30.7741 70.0457 30.5072C69.2448 30.2197 68.5261 29.8706 67.8895 29.4599C67.5198 29.2134 67.2632 28.9157 67.1194 28.5666C66.9757 28.2175 66.9243 27.8787 66.9654 27.5501C67.027 27.201 67.1605 26.9032 67.3658 26.6568C67.5917 26.3898 67.8689 26.2256 68.1975 26.164C68.5261 26.1024 68.8854 26.1948 69.2756 26.4412C70.1791 26.9751 71.134 27.3653 72.1403 27.6117C73.1465 27.8581 74.204 27.9813 75.3129 27.9813C76.9352 27.9813 78.116 27.7144 78.8553 27.1805C79.5945 26.626 79.9642 25.9175 79.9642 25.0551C79.9642 24.3363 79.6972 23.7716 79.1633 23.3609C78.6499 22.9502 77.7566 22.6114 76.4835 22.3444L73.0951 21.636C71.1443 21.2252 69.6863 20.5373 68.7212 19.5722C67.7765 18.5865 67.3042 17.2928 67.3042 15.691C67.3042 14.6848 67.5096 13.771 67.9203 12.9496C68.331 12.1282 68.906 11.4197 69.6452 10.8242C70.405 10.2287 71.2983 9.77688 72.3251 9.46885C73.3724 9.14029 74.5223 8.976 75.775 8.976C77.0071 8.976 78.1776 9.13002 79.2865 9.43805C80.3954 9.74607 81.3914 10.1978 82.2744 10.7934C82.6029 11.0193 82.8186 11.2965 82.9212 11.625C83.0444 11.9536 83.0753 12.2822 83.0136 12.6107C82.952 12.9188 82.8083 13.1857 82.5824 13.4116C82.3565 13.6375 82.069 13.771 81.7199 13.812C81.3914 13.8531 81.0115 13.7504 80.5802 13.504C79.8204 13.0728 79.0504 12.7647 78.27 12.5799C77.4897 12.3951 76.6477 12.3027 75.7442 12.3027C74.7996 12.3027 73.9884 12.4362 73.3108 12.7031C72.6331 12.9701 72.1095 13.35 71.7398 13.8428C71.3907 14.3152 71.2162 14.8799 71.2162 15.537C71.2162 16.2763 71.4626 16.8718 71.9554 17.3236C72.4483 17.7548 73.2902 18.0936 74.4813 18.3401L77.8388 19.0485C79.8718 19.4798 81.3811 20.1574 82.3668 21.0815C83.373 22.0056 83.8761 23.2377 83.8761 24.7778C83.8761 25.7635 83.6708 26.6568 83.2601 27.4577C82.8699 28.2586 82.2949 28.9465 81.5351 29.5215C80.7958 30.0965 79.9026 30.538 78.8553 30.846C77.808 31.154 76.6272 31.308 75.3129 31.308ZM88.8002 31.2156C88.1842 31.2156 87.7119 31.0308 87.3833 30.6612C87.0547 30.2915 86.8905 29.7782 86.8905 29.121V17.8164C86.8905 17.1387 87.0547 16.6254 87.3833 16.2763C87.7119 15.9066 88.1842 15.7218 88.8002 15.7218C89.4163 15.7218 89.8886 15.9066 90.2172 16.2763C90.5663 16.6254 90.7408 17.1387 90.7408 17.8164V29.121C90.7408 29.7782 90.5765 30.2915 90.248 30.6612C89.9194 31.0308 89.4368 31.2156 88.8002 31.2156ZM88.8002 12.8572C88.0815 12.8572 87.5168 12.6826 87.1061 12.3335C86.7159 11.9639 86.5208 11.4608 86.5208 10.8242C86.5208 10.167 86.7159 9.66393 87.1061 9.31483C87.5168 8.96574 88.0815 8.79119 88.8002 8.79119C89.5395 8.79119 90.1042 8.96574 90.4944 9.31483C90.8846 9.66393 91.0796 10.167 91.0796 10.8242C91.0796 11.4608 90.8846 11.9639 90.4944 12.3335C90.1042 12.6826 89.5395 12.8572 88.8002 12.8572ZM101.765 36.8525C100.656 36.8525 99.5776 36.7499 98.5303 36.5445C97.5035 36.3392 96.5692 36.0209 95.7273 35.5896C95.3371 35.3843 95.0701 35.1378 94.9264 34.8503C94.8032 34.5629 94.7621 34.2651 94.8032 33.9571C94.8648 33.6696 94.988 33.4129 95.1728 33.187C95.3782 32.9611 95.6246 32.8071 95.9121 32.725C96.1996 32.6428 96.4973 32.6839 96.8054 32.8482C97.7089 33.2999 98.5611 33.5874 99.362 33.7106C100.183 33.8544 100.882 33.9263 101.457 33.9263C102.832 33.9263 103.859 33.5874 104.537 32.9098C105.235 32.2526 105.584 31.267 105.584 29.9527V27.1805H105.861C105.553 28.2277 104.906 29.0697 103.921 29.7063C102.956 30.3223 101.857 30.6304 100.625 30.6304C99.2696 30.6304 98.0888 30.3223 97.0826 29.7063C96.0764 29.0697 95.296 28.1867 94.7416 27.0572C94.1871 25.9278 93.9099 24.6136 93.9099 23.1145C93.9099 21.985 94.0639 20.9686 94.3719 20.065C94.7005 19.1409 95.1523 18.3503 95.7273 17.6932C96.3228 17.0361 97.0312 16.533 97.8526 16.1839C98.6946 15.8142 99.6187 15.6294 100.625 15.6294C101.898 15.6294 103.007 15.9477 103.952 16.5843C104.917 17.2003 105.543 18.0218 105.831 19.0485L105.523 19.8186V17.6316C105.523 16.995 105.687 16.5124 106.015 16.1839C106.364 15.8553 106.837 15.691 107.432 15.691C108.048 15.691 108.521 15.8553 108.849 16.1839C109.178 16.5124 109.342 16.995 109.342 17.6316V29.4907C109.342 31.9344 108.695 33.7723 107.402 35.0044C106.108 36.2365 104.229 36.8525 101.765 36.8525ZM101.672 27.7041C102.473 27.7041 103.161 27.5193 103.736 27.1497C104.311 26.78 104.752 26.2564 105.06 25.5787C105.389 24.8805 105.553 24.0591 105.553 23.1145C105.553 21.6976 105.204 20.5887 104.506 19.7878C103.808 18.9664 102.863 18.5557 101.672 18.5557C100.871 18.5557 100.183 18.7405 99.6084 19.1101C99.0334 19.4798 98.5816 20.0034 98.2531 20.6811C97.9451 21.3587 97.791 22.1699 97.791 23.1145C97.791 24.5314 98.1401 25.6506 98.8383 26.472C99.5365 27.2934 100.481 27.7041 101.672 27.7041ZM115.241 31.2464C114.625 31.2464 114.153 31.0821 113.824 30.7536C113.496 30.4045 113.332 29.9116 113.332 29.275V17.6316C113.332 16.995 113.496 16.5124 113.824 16.1839C114.153 15.8553 114.615 15.691 115.211 15.691C115.806 15.691 116.268 15.8553 116.597 16.1839C116.925 16.5124 117.089 16.995 117.089 17.6316V19.7262L116.751 18.9561C117.202 17.8677 117.901 17.0463 118.845 16.4919C119.81 15.9169 120.899 15.6294 122.11 15.6294C123.322 15.6294 124.318 15.8553 125.098 16.3071C125.879 16.7588 126.464 17.4468 126.854 18.3709C127.244 19.2744 127.439 20.4244 127.439 21.8208V29.275C127.439 29.9116 127.275 30.4045 126.946 30.7536C126.618 31.0821 126.145 31.2464 125.529 31.2464C124.913 31.2464 124.431 31.0821 124.082 30.7536C123.753 30.4045 123.589 29.9116 123.589 29.275V22.0056C123.589 20.8351 123.363 19.9829 122.911 19.449C122.48 18.915 121.802 18.6481 120.878 18.6481C119.749 18.6481 118.845 19.0074 118.168 19.7262C117.51 20.4244 117.182 21.3587 117.182 22.5292V29.275C117.182 30.5893 116.535 31.2464 115.241 31.2464Z" fill="url(#paint1_linear_56_234)"/>
<path d="M138.643 18.4423C138.937 18.1491 139.083 18.0025 139.252 17.9479C139.401 17.8998 139.561 17.9002 139.709 17.949C139.878 18.0044 140.024 18.1517 140.315 18.4464L144.795 22.9703L139.635 28.1304L135.111 23.6506C134.817 23.3588 134.669 23.2129 134.614 23.0442C134.565 22.8959 134.565 22.7359 134.613 22.5873C134.667 22.4184 134.814 22.2717 135.107 21.9785L138.643 18.4423Z" fill="url(#paint2_linear_56_234)"/>
<path d="M158.418 9.34762C158.707 9.05844 158.852 8.91385 159.019 8.85902C159.166 8.81078 159.324 8.80995 159.471 8.85665C159.639 8.90974 159.785 9.05281 160.077 9.33895L163.739 12.9251C164.037 13.2167 164.186 13.3625 164.242 13.5316C164.291 13.6803 164.292 13.8409 164.244 13.9901C164.19 14.1597 164.042 14.3071 163.748 14.6017L145.715 32.6349C145.42 32.9296 145.273 33.077 145.103 33.1315C144.954 33.1795 144.793 33.1786 144.644 33.1291C144.475 33.0728 144.33 32.9239 144.038 32.6262L139.635 28.1304L158.418 9.34762Z" fill="url(#paint3_linear_56_234)"/>
<path d="M139.635 28.1304C139.521 28.0159 139.463 27.9587 139.425 27.9021C139.253 27.6511 139.253 27.3204 139.425 27.0694C139.464 27.0128 139.521 26.9557 139.635 26.8413L143.514 22.9668C143.624 22.857 143.679 22.802 143.733 22.7645C143.987 22.5882 144.324 22.5891 144.577 22.7668C144.631 22.8046 144.686 22.8599 144.795 22.9703V22.9703L139.635 28.1304V28.1304Z" fill="white"/>
<defs>
<linearGradient id="paint0_linear_56_234" x1="30.3467" y1="11.1885" x2="30.3467" y2="40.1066" gradientUnits="userSpaceOnUse">
<stop stop-color="#6775A9"/>
<stop offset="1" stop-color="#3832B6"/>
</linearGradient>
<linearGradient id="paint1_linear_56_234" x1="97.2953" y1="11.1885" x2="97.2952" y2="40.1066" gradientUnits="userSpaceOnUse">
<stop stop-color="#6775A9"/>
<stop offset="1" stop-color="#3832B6"/>
</linearGradient>
<linearGradient id="paint2_linear_56_234" x1="149.354" y1="15.1703" x2="149.354" y2="32.3526" gradientUnits="userSpaceOnUse">
<stop stop-color="#6775A9"/>
<stop offset="1" stop-color="#3832B6"/>
</linearGradient>
<linearGradient id="paint3_linear_56_234" x1="149.354" y1="15.1703" x2="149.354" y2="32.3526" gradientUnits="userSpaceOnUse">
<stop stop-color="#6775A9"/>
<stop offset="1" stop-color="#3832B6"/>
</linearGradient>
</defs>
</svg>
